<svg width="248" height="248" viewBox="0 0 248 248" fill="none" xmlns="http://www.w3.org/2000/svg">
<circle cx="124" cy="124" r="124" fill="#FFF3B5"/>
<circle cx="124" cy="124" r="124" fill="#FFF3B5"/>
<circle cx="124" cy="124" r="110" fill="#FF7557"/>
<circle cx="73" cy="94" r="36" fill="#FFF3B5"/>
<circle cx="130" cy="189" r="26" fill="#FFF3B5"/>
<circle cx="177" cy="84" r="26" fill="#FFF3B5"/>
<path d="M165.292 145.953C180.123 138.068 208.041 145.038 220.145 149.508C215.335 160.79 202.511 185.057 189.702 191.867C176.893 198.677 149.605 195.736 137.561 193.414C140.625 180.879 150.461 153.838 165.292 145.953Z" fill="#4FB064"/>
<path d="M78.9648 139.748C90.3383 143.25 100.799 160.747 104.608 169.057C96.5397 172.284 77.9479 177.982 68.1253 174.958C58.3027 171.934 46.1343 156.767 41.2779 149.561C49.1012 144.831 67.5913 136.247 78.9648 139.748Z" fill="#4FB064"/>
<path d="M129.504 32.7482C140.878 36.2496 151.339 53.7466 155.147 62.0574C147.079 65.2842 128.488 70.9818 118.665 67.9579C108.842 64.934 96.6739 49.7666 91.8176 42.5609C99.6409 37.8311 118.131 29.2468 129.504 32.7482Z" fill="#4FB064"/>
</svg>
