<svg xmlns="http://www.w3.org/2000/svg" xmlns:xlink="http://www.w3.org/1999/xlink" width="1900" zoomAndPan="magnify" viewBox="0 0 1425 236.249991" height="315" preserveAspectRatio="xMidYMid meet" version="1.0"><defs><g/><clipPath id="5b16b2897c"><path d="M 1022.847656 0 L 1288.804688 0 L 1288.804688 235.5 L 1022.847656 235.5 Z M 1022.847656 0 " clip-rule="nonzero"/></clipPath><clipPath id="b8f16c8ca1"><path d="M 1227.480469 0 L 1422.746094 0 L 1422.746094 235.503906 L 1227.480469 235.503906 Z M 1227.480469 0 " clip-rule="nonzero"/></clipPath><clipPath id="e7c29a4204"><path d="M 37 0 L 1344 0 L 1344 235.503906 L 37 235.503906 Z M 37 0 " clip-rule="nonzero"/></clipPath><clipPath id="ac9fde1710"><path d="M 77 0 L 1289 0 L 1289 235.503906 L 77 235.503906 Z M 77 0 " clip-rule="nonzero"/></clipPath><clipPath id="efff45d05a"><path d="M 1105.359375 195.648438 L 1241.425781 195.648438 L 1241.425781 235.503906 L 1105.359375 235.503906 Z M 1105.359375 195.648438 " clip-rule="nonzero"/></clipPath><clipPath id="0a7889e14a"><path d="M 17 167 L 194 167 L 194 235.503906 L 17 235.503906 Z M 17 167 " clip-rule="nonzero"/></clipPath><clipPath id="a99c7745f7"><path d="M 35.023438 146.429688 L 207.988281 206.714844 L 188.300781 263.191406 L 15.339844 202.90625 Z M 35.023438 146.429688 " clip-rule="nonzero"/></clipPath><clipPath id="edc753bc6a"><path d="M 35.023438 146.429688 L 207.988281 206.714844 L 188.300781 263.191406 L 15.339844 202.90625 Z M 35.023438 146.429688 " clip-rule="nonzero"/></clipPath><clipPath id="a1c4168246"><path d="M 134.441406 0 L 392.371094 0 L 392.371094 96.648438 L 134.441406 96.648438 Z M 134.441406 0 " clip-rule="nonzero"/></clipPath><clipPath id="ec379245cf"><path d="M 975.464844 0 L 1362.734375 0 L 1362.734375 126.53125 L 975.464844 126.53125 Z M 975.464844 0 " clip-rule="nonzero"/></clipPath><clipPath id="ae128e06cc"><path d="M 239 125 L 364.578125 125 L 364.578125 220 L 239 220 Z M 239 125 " clip-rule="nonzero"/></clipPath><clipPath id="aa211591f0"><path d="M 144.402344 0 L 272.246094 0 L 272.246094 122.964844 L 144.402344 122.964844 Z M 144.402344 0 " clip-rule="nonzero"/></clipPath><clipPath id="ac94719fe6"><path d="M 835.65625 0 L 963.503906 0 L 963.503906 52.378906 L 835.65625 52.378906 Z M 835.65625 0 " clip-rule="nonzero"/></clipPath></defs><g clip-path="url(#5b16b2897c)"><path fill="#6fdb5e" d="M 1288.804688 235.488281 L 1022.847656 235.488281 C 1027.039062 175.664062 1071.238281 188.621094 1097.910156 171.472656 C 1124.964844 154.328125 1110.484375 113.175781 1144.777344 86.503906 C 1178.6875 59.453125 1203.074219 66.691406 1222.886719 59.453125 C 1242.703125 52.210938 1246.511719 25.160156 1259.46875 11.441406 C 1270.515625 0.0117188 1288.804688 0.0117188 1288.804688 0.0117188 Z M 1288.804688 235.488281 " fill-opacity="1" fill-rule="nonzero"/></g><g clip-path="url(#b8f16c8ca1)"><path fill="#6fdb5e" d="M 1227.480469 -1.085938 L 1422.746094 -1.085938 L 1422.746094 242.578125 L 1227.480469 242.578125 Z M 1227.480469 -1.085938 " fill-opacity="1" fill-rule="nonzero"/></g><g clip-path="url(#e7c29a4204)"><path fill="#ffeeb4" d="M 1343.632812 68.742188 C 1297.015625 -197.738281 1100.359375 -425.238281 850.878906 -489.972656 C 738.910156 -520 623.6875 -503.714844 510.296875 -485.800781 C 453.191406 -463.101562 397.820312 -435.414062 341.734375 -410.171875 C 71.28125 -243.953125 -42.414062 143.859375 98.867188 441.691406 C 214.804688 666.441406 444.945312 837.140625 693.207031 811.183594 C 755.09375 817.699219 804.566406 816.375 862.175781 787.976562 C 937.804688 768.839844 1015.773438 728.9375 1084.074219 682.320312 C 1218.332031 585.214844 1322.359375 404.132812 1341.902344 234.453125 C 1344.144531 195.265625 1345.160156 185.390625 1340.480469 155.566406 C 1340.683594 140.09375 1345.261719 93.882812 1343.632812 68.742188 Z M 1334.675781 216.027344 C 1324.5 301.9375 1301.800781 397.3125 1249.277344 472.332031 C 1196.652344 553.761719 1142.195312 641.097656 1056.695312 686.085938 C 847.316406 826.757812 570.554688 849.050781 353.335938 714.078125 C 66.296875 529.128906 -44.550781 149.765625 128.792969 -163.742188 C 218.46875 -318.765625 310.179688 -396.125 470.089844 -457.808594 C 671.019531 -531.199219 910.425781 -508.703125 1078.171875 -361.71875 C 1214.871094 -259.933594 1303.121094 -100.023438 1335.59375 72 C 1334.574219 120.042969 1335.1875 168.390625 1334.675781 216.027344 Z M 1334.675781 216.027344 " fill-opacity="1" fill-rule="nonzero"/></g><g clip-path="url(#ac9fde1710)"><path fill="#ffeeb4" d="M 1288.363281 172.464844 C 1286.734375 -57.375 1160.414062 -303.089844 933.53125 -392.460938 C 897.496094 -406.914062 860.039062 -415.972656 821.5625 -428.699219 C 814.160156 -431.9375 806.59375 -434.730469 798.863281 -437.078125 C 791.128906 -439.425781 783.285156 -441.308594 775.332031 -442.734375 C 767.378906 -444.15625 759.367188 -445.105469 751.300781 -445.585938 C 743.238281 -446.0625 735.171875 -446.066406 727.105469 -445.59375 C 587.449219 -445.59375 456.246094 -436.535156 343.160156 -341.769531 C 74.132812 -168.425781 -9.945312 235.164062 181.417969 491.773438 C 290.941406 672.039062 465.8125 748.175781 672.953125 765.683594 C 755.402344 764.667969 836.425781 740.136719 912.664062 712.042969 C 913.375 712.042969 914.800781 711.429688 914.496094 712.042969 C 909.609375 716.316406 927.726562 708.582031 937.703125 704.101562 C 975.875 683.746094 1025.34375 665.523438 1056.082031 637.023438 C 1189.527344 527.601562 1295.488281 344.382812 1288.363281 172.464844 Z M 1278.183594 208.089844 C 1267.394531 372.578125 1169.578125 528.214844 1042.339844 633.664062 C 839.578125 765.988281 589.484375 793.574219 375.425781 669.699219 C -42.921875 418.382812 10.414062 -207.714844 459.199219 -397.144531 C 518.539062 -421.367188 581.34375 -438.671875 646.386719 -434.398438 C 736.671875 -444.578125 813.523438 -426.457031 896.480469 -396.9375 C 1148.914062 -314.59375 1294.164062 -38.441406 1278.695312 208.089844 Z M 1278.183594 208.089844 " fill-opacity="1" fill-rule="nonzero"/></g><g clip-path="url(#efff45d05a)"><path fill="#41bf7a" d="M 1105.171875 251.582031 C 1106.457031 248.203125 1107.746094 244.824219 1109.03125 241.445312 C 1109.160156 241.109375 1109.488281 240.863281 1109.863281 240.972656 C 1109.933594 240.996094 1110.007812 241.023438 1110.082031 241.039062 C 1111.78125 241.382812 1113.464844 242.023438 1115.128906 242.507812 C 1118.699219 243.546875 1122.273438 244.585938 1125.847656 245.628906 C 1132.199219 247.476562 1138.550781 249.328125 1144.902344 251.175781 C 1138.648438 245.628906 1132.394531 240.082031 1126.140625 234.535156 C 1122.78125 231.558594 1119.425781 228.578125 1116.066406 225.601562 C 1115.839844 225.398438 1115.816406 225.15625 1115.898438 224.945312 C 1115.925781 224.839844 1115.972656 224.738281 1116.066406 224.644531 C 1118.621094 222.089844 1121.179688 219.53125 1123.734375 216.976562 C 1124.011719 216.703125 1124.414062 216.738281 1124.691406 216.976562 C 1124.75 217.027344 1124.804688 217.078125 1124.867188 217.125 C 1129.191406 220.4375 1133.222656 224.238281 1137.371094 227.765625 C 1141.222656 231.046875 1145.078125 234.324219 1148.933594 237.605469 C 1145.808594 231.628906 1142.6875 225.652344 1139.5625 219.679688 C 1137.484375 215.699219 1135.40625 211.722656 1133.328125 207.746094 C 1133.289062 207.671875 1133.277344 207.601562 1133.265625 207.53125 C 1133.171875 207.265625 1133.234375 206.972656 1133.570312 206.820312 C 1136.867188 205.339844 1140.167969 203.859375 1143.464844 202.378906 C 1143.789062 202.234375 1144.199219 202.277344 1144.390625 202.625 C 1144.425781 202.691406 1144.457031 202.761719 1144.5 202.824219 C 1145.457031 204.269531 1146.195312 205.914062 1147.027344 207.429688 C 1148.820312 210.691406 1150.609375 213.953125 1152.402344 217.21875 C 1156.710938 225.066406 1161.019531 232.917969 1165.332031 240.769531 C 1164.492188 230.363281 1163.65625 219.960938 1162.816406 209.554688 C 1162.457031 205.085938 1162.097656 200.617188 1161.738281 196.148438 C 1161.707031 195.78125 1162.070312 195.472656 1162.414062 195.472656 C 1166.953125 195.472656 1171.492188 195.472656 1176.03125 195.472656 C 1176.417969 195.472656 1176.6875 195.78125 1176.707031 196.148438 C 1176.714844 196.222656 1176.714844 196.300781 1176.722656 196.378906 C 1176.929688 198.109375 1176.933594 199.890625 1177.035156 201.628906 C 1177.257812 205.316406 1177.480469 209.003906 1177.699219 212.691406 C 1177.929688 216.496094 1178.15625 220.304688 1178.382812 224.109375 C 1179.8125 219.199219 1181.246094 214.289062 1182.675781 209.375 C 1183.929688 205.070312 1185.179688 200.765625 1186.433594 196.460938 C 1186.53125 196.136719 1186.921875 195.855469 1187.265625 195.988281 C 1191.507812 197.601562 1195.753906 199.21875 1199.996094 200.832031 C 1200.328125 200.960938 1200.582031 201.292969 1200.46875 201.664062 C 1200.445312 201.738281 1200.414062 201.808594 1200.398438 201.882812 C 1200.027344 203.574219 1199.339844 205.253906 1198.824219 206.902344 C 1197.71875 210.429688 1196.613281 213.953125 1195.507812 217.476562 C 1193.785156 222.980469 1192.058594 228.480469 1190.332031 233.984375 C 1194.90625 228.609375 1199.480469 223.234375 1204.054688 217.859375 C 1206.960938 214.445312 1209.867188 211.03125 1212.773438 207.617188 C 1213.007812 207.335938 1213.484375 207.371094 1213.726562 207.617188 C 1216.9375 210.824219 1220.148438 214.035156 1223.359375 217.246094 C 1223.628906 217.515625 1223.601562 217.929688 1223.359375 218.203125 C 1223.308594 218.257812 1223.253906 218.3125 1223.207031 218.375 C 1222.125 219.742188 1220.871094 221.003906 1219.714844 222.308594 C 1217.261719 225.074219 1214.8125 227.835938 1212.363281 230.601562 C 1209.832031 233.453125 1207.300781 236.304688 1204.769531 239.160156 C 1209.253906 236.699219 1213.734375 234.238281 1218.214844 231.777344 C 1222.148438 229.621094 1226.078125 227.460938 1230.007812 225.304688 C 1230.300781 225.144531 1230.78125 225.207031 1230.933594 225.546875 C 1232.789062 229.6875 1234.648438 233.832031 1236.507812 237.972656 C 1236.652344 238.292969 1236.613281 238.714844 1236.265625 238.898438 C 1236.195312 238.933594 1236.125 238.964844 1236.0625 239.003906 C 1234.601562 239.9375 1232.929688 240.640625 1231.398438 241.441406 C 1228.125 243.152344 1224.851562 244.863281 1221.578125 246.574219 C 1214.660156 250.1875 1207.738281 253.804688 1200.820312 257.421875 C 1209.660156 256.707031 1218.5 255.996094 1227.339844 255.285156 C 1231.8125 254.925781 1236.28125 254.566406 1240.75 254.207031 C 1241.117188 254.175781 1241.425781 254.539062 1241.425781 254.882812 C 1241.425781 259.421875 1241.425781 263.960938 1241.425781 268.5 C 1241.425781 268.882812 1241.113281 269.15625 1240.75 269.175781 C 1240.675781 269.179688 1240.597656 269.179688 1240.519531 269.191406 C 1238.789062 269.398438 1237.007812 269.402344 1235.269531 269.503906 C 1231.582031 269.726562 1227.894531 269.945312 1224.207031 270.167969 C 1220.3125 270.402344 1216.421875 270.632812 1212.527344 270.867188 C 1217.242188 272.242188 1221.957031 273.613281 1226.671875 274.984375 C 1230.976562 276.238281 1235.28125 277.492188 1239.585938 278.746094 C 1239.910156 278.839844 1240.191406 279.234375 1240.058594 279.578125 C 1238.441406 283.820312 1236.828125 288.0625 1235.214844 292.304688 C 1235.085938 292.636719 1234.753906 292.894531 1234.382812 292.777344 C 1234.308594 292.753906 1234.238281 292.726562 1234.164062 292.710938 C 1232.472656 292.339844 1230.792969 291.652344 1229.144531 291.136719 C 1225.617188 290.03125 1222.09375 288.925781 1218.570312 287.820312 C 1212.960938 286.0625 1207.351562 284.304688 1201.742188 282.542969 C 1206.945312 286.96875 1212.144531 291.394531 1217.34375 295.820312 C 1220.761719 298.726562 1224.175781 301.632812 1227.589844 304.539062 C 1227.867188 304.777344 1227.832031 305.25 1227.589844 305.496094 C 1224.378906 308.703125 1221.167969 311.914062 1217.960938 315.125 C 1217.6875 315.394531 1217.277344 315.367188 1217.003906 315.125 C 1216.945312 315.074219 1216.890625 315.019531 1216.832031 314.972656 C 1215.460938 313.890625 1214.199219 312.636719 1212.894531 311.480469 C 1210.132812 309.03125 1207.367188 306.578125 1204.605469 304.128906 C 1201.6875 301.539062 1198.769531 298.953125 1195.851562 296.363281 C 1198.210938 300.667969 1200.574219 304.96875 1202.9375 309.269531 C 1205.09375 313.199219 1207.25 317.132812 1209.410156 321.0625 C 1209.570312 321.355469 1209.507812 321.835938 1209.167969 321.988281 C 1205.023438 323.84375 1200.882812 325.703125 1196.742188 327.5625 C 1196.421875 327.703125 1195.996094 327.667969 1195.816406 327.320312 C 1195.78125 327.25 1195.75 327.179688 1195.710938 327.113281 C 1194.777344 325.65625 1194.074219 323.984375 1193.273438 322.453125 C 1191.5625 319.179688 1189.851562 315.90625 1188.140625 312.632812 C 1186.464844 309.421875 1184.789062 306.214844 1183.113281 303.007812 C 1183.398438 307.800781 1183.6875 312.589844 1183.972656 317.382812 C 1184.242188 321.863281 1184.511719 326.34375 1184.777344 330.824219 C 1184.796875 331.125 1184.640625 331.316406 1184.433594 331.40625 C 1184.34375 331.460938 1184.234375 331.5 1184.101562 331.5 C 1180.488281 331.5 1176.871094 331.5 1173.257812 331.5 C 1172.867188 331.5 1172.609375 331.1875 1172.582031 330.824219 C 1172.574219 330.746094 1172.574219 330.671875 1172.5625 330.59375 C 1172.332031 328.867188 1172.28125 327.09375 1172.140625 325.355469 C 1171.84375 321.648438 1171.542969 317.9375 1171.246094 314.230469 C 1170.832031 309.09375 1170.417969 303.953125 1170.003906 298.816406 C 1168.046875 305.0625 1166.089844 311.308594 1164.128906 317.554688 C 1162.785156 321.835938 1161.445312 326.117188 1160.101562 330.402344 C 1160.074219 330.492188 1160.027344 330.5625 1159.976562 330.625 C 1159.847656 330.855469 1159.597656 331 1159.269531 330.875 C 1155.890625 329.589844 1152.511719 328.300781 1149.132812 327.015625 C 1148.796875 326.886719 1148.554688 326.558594 1148.660156 326.183594 C 1148.683594 326.113281 1148.710938 326.039062 1148.726562 325.964844 C 1149.074219 324.265625 1149.710938 322.578125 1150.195312 320.917969 C 1151.234375 317.347656 1152.277344 313.773438 1153.316406 310.199219 C 1155.199219 303.734375 1157.082031 297.269531 1158.964844 290.804688 C 1153.566406 296.890625 1148.167969 302.976562 1142.769531 309.066406 C 1139.792969 312.421875 1136.8125 315.78125 1133.835938 319.140625 C 1133.632812 319.367188 1133.386719 319.390625 1133.175781 319.308594 C 1133.074219 319.28125 1132.972656 319.230469 1132.878906 319.136719 C 1130.324219 316.582031 1127.765625 314.027344 1125.210938 311.46875 C 1124.933594 311.195312 1124.972656 310.792969 1125.210938 310.515625 C 1125.257812 310.457031 1125.3125 310.398438 1125.359375 310.339844 C 1128.671875 306.011719 1132.46875 301.984375 1136 297.835938 C 1139.339844 293.910156 1142.679688 289.984375 1146.019531 286.058594 C 1140.222656 289.089844 1134.421875 292.121094 1128.625 295.148438 C 1124.648438 297.226562 1120.667969 299.308594 1116.691406 301.386719 C 1116.617188 301.425781 1116.546875 301.433594 1116.480469 301.449219 C 1116.214844 301.539062 1115.917969 301.480469 1115.765625 301.144531 C 1114.285156 297.84375 1112.804688 294.546875 1111.328125 291.25 C 1111.179688 290.921875 1111.226562 290.511719 1111.570312 290.324219 C 1111.636719 290.289062 1111.707031 290.253906 1111.769531 290.214844 C 1113.214844 289.257812 1114.859375 288.515625 1116.378906 287.683594 C 1119.640625 285.894531 1122.902344 284.101562 1126.164062 282.3125 C 1130.4375 279.964844 1134.710938 277.621094 1138.984375 275.273438 C 1132.492188 275.664062 1126.003906 276.050781 1119.515625 276.441406 C 1115.035156 276.710938 1110.554688 276.976562 1106.074219 277.246094 C 1105.773438 277.265625 1105.582031 277.109375 1105.492188 276.902344 C 1105.4375 276.808594 1105.398438 276.703125 1105.398438 276.570312 C 1105.398438 272.957031 1105.398438 269.339844 1105.398438 265.726562 C 1105.398438 265.335938 1105.710938 265.078125 1106.074219 265.050781 C 1106.152344 265.042969 1106.226562 265.042969 1106.304688 265.03125 C 1108.03125 264.800781 1109.804688 264.75 1111.542969 264.609375 C 1115.25 264.3125 1118.960938 264.011719 1122.667969 263.714844 C 1127.710938 263.308594 1132.757812 262.902344 1137.800781 262.496094 C 1131.363281 260.476562 1124.929688 258.460938 1118.492188 256.441406 C 1114.210938 255.097656 1109.925781 253.753906 1105.644531 252.414062 C 1105.554688 252.382812 1105.484375 252.339844 1105.421875 252.289062 C 1105.191406 252.15625 1105.046875 251.910156 1105.171875 251.582031 Z M 1105.171875 251.582031 " fill-opacity="1" fill-rule="nonzero"/></g><g clip-path="url(#0a7889e14a)"><g clip-path="url(#a99c7745f7)"><g clip-path="url(#edc753bc6a)"><path fill="#166b3d" d="M 190.800781 225.792969 C 186.175781 217.105469 176.90625 212.105469 167.355469 211.027344 C 166.679688 210.953125 165.996094 210.894531 165.300781 210.855469 C 163.699219 206.980469 161.210938 203.460938 158.085938 200.757812 C 151.71875 195.25 143.078125 192.957031 134.78125 193.261719 C 133.859375 193.292969 132.9375 193.363281 132.015625 193.457031 C 129.246094 187.78125 125.039062 182.777344 119.988281 179.042969 C 112.53125 173.53125 103.28125 171.3125 94.109375 172.433594 C 91.238281 172.785156 88.402344 173.449219 85.65625 174.390625 C 84.21875 173.125 82.625 172.03125 80.9375 171.121094 C 72.523438 166.59375 62.132812 166.261719 52.980469 168.371094 C 43.535156 170.546875 34.636719 175.375 27.683594 182.132812 C 23.671875 186.035156 20.429688 190.601562 17.894531 195.585938 C 17.8125 195.75 17.839844 195.953125 18.039062 196.023438 C 20.21875 196.78125 22.402344 197.542969 24.585938 198.304688 C 24.597656 198.308594 24.609375 198.304688 24.621094 198.308594 C 24.726562 198.351562 24.847656 198.332031 24.917969 198.195312 C 31.121094 186.015625 43.53125 177.71875 56.855469 175.339844 C 63.785156 174.105469 71.664062 174.367188 77.902344 177.949219 C 74.757812 179.785156 71.847656 182.019531 69.292969 184.601562 C 62.78125 191.1875 57.757812 200.945312 59.777344 210.421875 C 60.683594 214.671875 63.058594 218.539062 67.015625 220.546875 C 70.617188 222.378906 74.910156 222.4375 78.679688 221.078125 C 83.304688 219.40625 86.671875 215.710938 88.679688 211.300781 C 89.816406 208.804688 90.535156 206.15625 91.109375 203.484375 C 91.738281 200.570312 92.34375 197.648438 92.660156 194.683594 C 93.167969 189.890625 92.835938 185.054688 90.640625 180.726562 C 94.15625 179.820312 97.8125 179.480469 101.429688 179.84375 C 110.953125 180.792969 119.691406 186.75 124.382812 194.984375 C 119.757812 196.382812 115.394531 198.617188 111.691406 201.71875 C 108.042969 204.777344 104.964844 208.703125 103.957031 213.449219 C 102.941406 218.242188 104.320312 223.363281 107.601562 227.007812 C 110.492188 230.222656 114.804688 232.007812 119.125 231.410156 C 123.0625 230.867188 126.535156 228.507812 129.15625 225.609375 C 135.113281 219.015625 136.71875 209.582031 134.746094 201.085938 C 134.726562 201.003906 134.703125 200.925781 134.683594 200.84375 C 138.136719 200.648438 141.613281 201 144.90625 202 C 148.375 203.050781 151.671875 204.839844 154.238281 207.421875 C 155.378906 208.570312 156.351562 209.875 157.15625 211.277344 C 151.144531 212.289062 145.433594 214.960938 141.898438 219.992188 C 138.925781 224.214844 138.460938 229.558594 140.945312 234.125 C 143.097656 238.082031 147.144531 240.851562 151.730469 240.746094 C 159.378906 240.570312 165.027344 232.953125 166.6875 226.109375 C 167.285156 223.648438 167.441406 221.113281 167.21875 218.605469 C 176.980469 220.117188 186.734375 227.289062 186.273438 238.039062 C 186.117188 241.742188 184.796875 245.230469 182.109375 247.839844 C 181.996094 247.949219 181.972656 248.125 182.078125 248.25 C 183.578125 250.007812 185.078125 251.765625 186.578125 253.523438 C 186.675781 253.636719 186.875 253.664062 186.988281 253.558594 C 194.441406 246.386719 195.582031 234.777344 190.800781 225.792969 Z M 159.636719 218.550781 C 160.019531 221.429688 159.777344 224.523438 158.503906 227.121094 C 157.34375 229.496094 155.210938 231.855469 152.6875 232.785156 C 151.515625 233.214844 150.226562 233.238281 149.160156 232.523438 C 147.894531 231.667969 147.113281 230.027344 146.847656 228.5625 C 146.300781 225.53125 148.488281 223.152344 150.878906 221.65625 C 153.523438 220 156.539062 218.988281 159.636719 218.550781 Z M 123.402344 203.484375 C 124.644531 202.957031 125.925781 202.5 127.234375 202.121094 C 127.621094 203.710938 127.867188 205.34375 127.949219 207.011719 C 128.238281 212.984375 126.140625 219.835938 120.671875 223.015625 C 118.285156 224.402344 115.605469 224.355469 113.550781 222.398438 C 111.457031 220.40625 110.578125 217.644531 111.367188 214.847656 C 112.925781 209.328125 118.421875 205.601562 123.402344 203.484375 Z M 83.613281 183.378906 C 84.527344 184.96875 85.105469 186.753906 85.300781 188.695312 C 85.625 191.917969 85.074219 195.203125 84.597656 198.382812 C 83.789062 203.804688 82.414062 210.828125 77.101562 213.664062 C 74.058594 215.289062 70.476562 215.070312 68.523438 211.984375 C 66.703125 209.117188 66.578125 205.375 67.320312 202.152344 C 69.027344 194.761719 74.867188 188.566406 81.199219 184.71875 C 81.984375 184.242188 82.789062 183.796875 83.613281 183.378906 Z M 83.613281 183.378906 " fill-opacity="1" fill-rule="nonzero"/></g></g></g><g clip-path="url(#a1c4168246)"><path fill="#166b3d" d="M 392.117188 -9.734375 C 389.6875 -3.347656 387.253906 3.042969 384.820312 9.433594 C 384.578125 10.070312 383.957031 10.53125 383.25 10.324219 C 383.113281 10.285156 382.972656 10.230469 382.832031 10.203125 C 379.625 9.546875 376.433594 8.339844 373.289062 7.425781 C 366.535156 5.457031 359.777344 3.488281 353.019531 1.523438 C 341.007812 -1.976562 328.996094 -5.472656 316.980469 -8.972656 C 328.808594 1.519531 340.636719 12.007812 352.464844 22.5 C 358.8125 28.128906 365.164062 33.761719 371.515625 39.394531 C 371.945312 39.777344 371.988281 40.238281 371.835938 40.640625 C 371.78125 40.832031 371.691406 41.027344 371.515625 41.203125 C 366.679688 46.039062 361.847656 50.871094 357.011719 55.707031 C 356.492188 56.226562 355.730469 56.152344 355.203125 55.707031 C 355.09375 55.613281 354.988281 55.511719 354.875 55.425781 C 346.691406 49.160156 339.070312 41.976562 331.226562 35.300781 C 323.9375 29.097656 316.648438 22.898438 309.359375 16.695312 C 315.265625 27.996094 321.171875 39.296875 327.078125 50.597656 C 331.007812 58.121094 334.941406 65.644531 338.871094 73.164062 C 338.945312 73.300781 338.964844 73.433594 338.988281 73.566406 C 339.164062 74.070312 339.050781 74.628906 338.414062 74.914062 C 332.175781 77.714844 325.9375 80.511719 319.699219 83.308594 C 319.085938 83.585938 318.308594 83.503906 317.953125 82.851562 C 317.882812 82.726562 317.820312 82.589844 317.742188 82.46875 C 315.9375 79.738281 314.535156 76.625 312.960938 73.757812 C 309.574219 67.589844 306.1875 61.421875 302.800781 55.25 C 294.652344 40.40625 286.5 25.558594 278.351562 10.710938 C 279.933594 30.386719 281.519531 50.0625 283.101562 69.738281 C 283.785156 78.191406 284.464844 86.644531 285.144531 95.097656 C 285.199219 95.789062 284.515625 96.375 283.867188 96.375 C 275.28125 96.375 266.695312 96.375 258.109375 96.375 C 257.382812 96.375 256.875 95.785156 256.832031 95.097656 C 256.824219 94.953125 256.824219 94.804688 256.804688 94.660156 C 256.414062 91.386719 256.410156 88.019531 256.210938 84.730469 C 255.792969 77.757812 255.375 70.785156 254.957031 63.8125 C 254.527344 56.613281 254.09375 49.414062 253.664062 42.214844 C 250.957031 51.503906 248.253906 60.792969 245.550781 70.082031 C 243.179688 78.222656 240.808594 86.363281 238.4375 94.503906 C 238.257812 95.117188 237.515625 95.648438 236.863281 95.398438 C 228.839844 92.34375 220.816406 89.289062 212.792969 86.234375 C 212.167969 85.996094 211.679688 85.367188 211.902344 84.664062 C 211.945312 84.527344 212 84.386719 212.03125 84.25 C 212.730469 81.050781 214.03125 77.875 215.007812 74.753906 C 217.097656 68.089844 219.1875 61.425781 221.277344 54.757812 C 224.539062 44.351562 227.804688 33.949219 231.066406 23.542969 C 222.417969 33.707031 213.765625 43.871094 205.117188 54.035156 C 199.621094 60.492188 194.125 66.953125 188.628906 73.410156 C 188.183594 73.9375 187.28125 73.867188 186.824219 73.410156 C 180.75 67.339844 174.679688 61.269531 168.609375 55.199219 C 168.097656 54.683594 168.152344 53.90625 168.609375 53.390625 C 168.707031 53.28125 168.808594 53.175781 168.898438 53.0625 C 170.941406 50.476562 173.3125 48.085938 175.5 45.621094 C 180.136719 40.394531 184.769531 35.167969 189.40625 29.941406 C 194.191406 24.546875 198.976562 19.152344 203.761719 13.753906 C 195.289062 18.40625 186.8125 23.0625 178.335938 27.714844 C 170.902344 31.792969 163.46875 35.875 156.035156 39.957031 C 155.480469 40.261719 154.574219 40.140625 154.285156 39.496094 C 150.773438 31.664062 147.257812 23.832031 143.742188 16 C 143.472656 15.394531 143.542969 14.59375 144.203125 14.25 C 144.328125 14.183594 144.46875 14.125 144.589844 14.046875 C 147.34375 12.28125 150.507812 10.953125 153.40625 9.441406 C 159.597656 6.203125 165.789062 2.96875 171.980469 -0.265625 C 185.0625 -7.105469 198.148438 -13.941406 211.230469 -20.777344 C 194.511719 -19.433594 177.796875 -18.085938 161.078125 -16.742188 C 152.625 -16.058594 144.171875 -15.378906 135.71875 -14.699219 C 135.027344 -14.644531 134.441406 -15.328125 134.441406 -15.976562 C 134.441406 -24.5625 134.441406 -33.148438 134.441406 -41.734375 C 134.441406 -42.460938 135.03125 -42.96875 135.71875 -43.011719 C 135.863281 -43.019531 136.011719 -43.019531 136.152344 -43.039062 C 139.425781 -43.429688 142.796875 -43.4375 146.085938 -43.632812 C 153.058594 -44.050781 160.03125 -44.46875 167.003906 -44.886719 C 174.367188 -45.328125 181.730469 -45.769531 189.09375 -46.210938 C 180.175781 -48.804688 171.261719 -51.402344 162.347656 -54 C 154.203125 -56.367188 146.0625 -58.738281 137.921875 -61.109375 C 137.308594 -61.289062 136.78125 -62.03125 137.027344 -62.683594 C 140.082031 -70.707031 143.136719 -78.730469 146.191406 -86.753906 C 146.429688 -87.382812 147.058594 -87.867188 147.761719 -87.648438 C 147.898438 -87.605469 148.039062 -87.546875 148.179688 -87.515625 C 151.375 -86.816406 154.550781 -85.519531 157.671875 -84.539062 C 164.335938 -82.449219 171.003906 -80.359375 177.667969 -78.269531 C 188.273438 -74.945312 198.878906 -71.617188 209.488281 -68.292969 C 199.652344 -76.664062 189.816406 -85.03125 179.980469 -93.402344 C 173.523438 -98.894531 167.066406 -104.390625 160.609375 -109.886719 C 160.078125 -110.335938 160.148438 -111.234375 160.609375 -111.695312 C 166.679688 -117.765625 172.75 -123.835938 178.820312 -129.90625 C 179.332031 -130.421875 180.109375 -130.367188 180.628906 -129.90625 C 180.734375 -129.8125 180.839844 -129.707031 180.953125 -129.617188 C 183.542969 -127.574219 185.929688 -125.203125 188.394531 -123.015625 C 193.621094 -118.382812 198.847656 -113.746094 204.074219 -109.113281 C 209.59375 -104.21875 215.113281 -99.324219 220.628906 -94.429688 C 216.164062 -102.5625 211.699219 -110.699219 207.230469 -118.835938 C 203.152344 -126.269531 199.070312 -133.703125 194.988281 -141.136719 C 194.6875 -141.6875 194.804688 -142.597656 195.449219 -142.882812 C 203.28125 -146.398438 211.113281 -149.910156 218.949219 -153.425781 C 219.554688 -153.699219 220.351562 -153.625 220.695312 -152.96875 C 220.761719 -152.839844 220.820312 -152.703125 220.898438 -152.582031 C 222.664062 -149.824219 223.992188 -146.664062 225.507812 -143.765625 C 228.742188 -137.574219 231.976562 -131.382812 235.210938 -125.191406 C 238.382812 -119.125 241.550781 -113.058594 244.722656 -106.996094 C 244.179688 -116.054688 243.636719 -125.117188 243.09375 -134.175781 C 242.585938 -142.652344 242.078125 -151.125 241.570312 -159.597656 C 241.535156 -160.167969 241.828125 -160.527344 242.21875 -160.699219 C 242.394531 -160.800781 242.597656 -160.875 242.847656 -160.875 C 249.683594 -160.875 256.519531 -160.875 263.359375 -160.875 C 264.09375 -160.875 264.582031 -160.285156 264.636719 -159.597656 C 264.648438 -159.453125 264.652344 -159.308594 264.671875 -159.164062 C 265.109375 -155.894531 265.203125 -152.542969 265.46875 -149.257812 C 266.035156 -142.242188 266.597656 -135.226562 267.164062 -128.214844 C 267.945312 -118.496094 268.726562 -108.78125 269.511719 -99.066406 C 273.214844 -110.878906 276.917969 -122.6875 280.621094 -134.5 C 283.160156 -142.597656 285.699219 -150.699219 288.238281 -158.796875 C 288.292969 -158.96875 288.378906 -159.101562 288.472656 -159.21875 C 288.71875 -159.65625 289.1875 -159.929688 289.8125 -159.691406 C 296.199219 -157.257812 302.589844 -154.828125 308.980469 -152.394531 C 309.617188 -152.152344 310.078125 -151.53125 309.871094 -150.824219 C 309.832031 -150.683594 309.78125 -150.546875 309.75 -150.40625 C 309.097656 -147.195312 307.886719 -144.007812 306.972656 -140.863281 C 305.003906 -134.109375 303.039062 -127.351562 301.070312 -120.59375 C 297.511719 -108.367188 293.949219 -96.140625 290.390625 -83.917969 C 300.597656 -95.425781 310.808594 -106.9375 321.015625 -118.445312 C 326.648438 -124.796875 332.28125 -131.148438 337.914062 -137.496094 C 338.292969 -137.929688 338.757812 -137.972656 339.160156 -137.816406 C 339.351562 -137.765625 339.542969 -137.675781 339.722656 -137.496094 C 344.554688 -132.664062 349.390625 -127.828125 354.222656 -122.996094 C 354.746094 -122.476562 354.671875 -121.714844 354.222656 -121.1875 C 354.128906 -121.078125 354.03125 -120.972656 353.941406 -120.855469 C 347.679688 -112.675781 340.496094 -105.054688 333.820312 -97.210938 C 327.503906 -89.785156 321.183594 -82.363281 314.867188 -74.9375 C 325.835938 -80.667969 336.800781 -86.398438 347.765625 -92.128906 C 355.289062 -96.0625 362.8125 -99.992188 370.335938 -103.925781 C 370.472656 -103.996094 370.605469 -104.019531 370.734375 -104.042969 C 371.238281 -104.21875 371.796875 -104.105469 372.085938 -103.46875 C 374.882812 -97.230469 377.679688 -90.992188 380.480469 -84.753906 C 380.757812 -84.136719 380.671875 -83.363281 380.019531 -83.003906 C 379.894531 -82.9375 379.757812 -82.875 379.640625 -82.796875 C 376.90625 -80.988281 373.796875 -79.589844 370.929688 -78.015625 C 364.757812 -74.628906 358.589844 -71.242188 352.421875 -67.855469 C 344.339844 -63.417969 336.257812 -58.980469 328.175781 -54.542969 C 340.449219 -55.28125 352.71875 -56.015625 364.992188 -56.75 C 373.464844 -57.257812 381.9375 -57.765625 390.414062 -58.273438 C 390.984375 -58.308594 391.34375 -58.011719 391.515625 -57.621094 C 391.617188 -57.445312 391.691406 -57.246094 391.691406 -56.996094 C 391.691406 -50.160156 391.691406 -43.324219 391.691406 -36.484375 C 391.691406 -35.75 391.101562 -35.261719 390.410156 -35.207031 C 390.269531 -35.195312 390.121094 -35.191406 389.980469 -35.171875 C 386.710938 -34.734375 383.359375 -34.640625 380.074219 -34.375 C 373.058594 -33.808594 366.042969 -33.246094 359.027344 -32.679688 C 349.492188 -31.914062 339.953125 -31.144531 330.414062 -30.375 C 342.582031 -26.558594 354.753906 -22.742188 366.925781 -18.929688 C 375.023438 -16.386719 383.125 -13.847656 391.226562 -11.308594 C 391.394531 -11.253906 391.527344 -11.167969 391.648438 -11.074219 C 392.082031 -10.824219 392.355469 -10.359375 392.117188 -9.734375 Z M 392.117188 -9.734375 " fill-opacity="1" fill-rule="nonzero"/></g><g clip-path="url(#ec379245cf)"><path fill="#166b3d" d="M 1362.816406 -67.0625 C 1362.816406 -36.980469 1343.1875 -11.277344 1316.113281 -2.082031 C 1327.53125 24.132812 1321.730469 55.949219 1299.480469 76.195312 C 1280.058594 93.863281 1253.039062 98.226562 1229.84375 89.851562 C 1218.320312 111.660156 1195.398438 126.613281 1169.140625 126.613281 C 1134.402344 126.613281 1105.5 100.445312 1101.125 66.847656 C 1071.613281 86.722656 1030.992188 80.648438 1008.761719 52.203125 C 993.28125 32.398438 990.488281 6.558594 999.125 -15.359375 C 984.65625 -27.960938 975.464844 -46.484375 975.464844 -67.0625 C 975.464844 -97.144531 995.09375 -122.847656 1022.167969 -132.042969 C 1010.75 -158.257812 1016.550781 -190.074219 1038.800781 -210.316406 C 1058.222656 -227.988281 1085.242188 -232.351562 1108.4375 -223.976562 C 1119.960938 -245.78125 1142.882812 -260.738281 1169.140625 -260.738281 C 1201.3125 -260.738281 1228.476562 -238.292969 1235.796875 -208.292969 C 1263.09375 -218.476562 1295.128906 -210.425781 1313.960938 -186.328125 C 1327.40625 -169.125 1331.273438 -147.371094 1326.402344 -127.585938 C 1348.023438 -116.003906 1362.816406 -93.179688 1362.816406 -67.0625 Z M 1362.816406 -67.0625 " fill-opacity="1" fill-rule="nonzero"/></g><g clip-path="url(#ae128e06cc)"><path fill="#6fdb5e" d="M 323.097656 201.519531 C 288.484375 226.742188 239.152344 217.992188 239.152344 217.992188 C 239.152344 217.992188 245.914062 168.339844 280.527344 143.035156 C 315.140625 117.730469 364.476562 126.5625 364.476562 126.5625 C 364.476562 126.5625 357.714844 176.296875 323.097656 201.519531 Z M 323.097656 201.519531 " fill-opacity="1" fill-rule="nonzero"/></g><g clip-path="url(#aa211591f0)"><path fill="#ffeeb4" d="M 208.273438 -4.878906 C 173.003906 -4.878906 144.402344 23.726562 144.402344 58.992188 C 144.402344 94.257812 173.003906 122.863281 208.273438 122.863281 C 243.539062 122.863281 272.140625 94.257812 272.140625 58.992188 C 272.140625 23.726562 243.539062 -4.878906 208.273438 -4.878906 Z M 208.273438 -4.878906 " fill-opacity="1" fill-rule="nonzero"/></g><g clip-path="url(#ac94719fe6)"><path fill="#ffeeb4" d="M 899.527344 -75.464844 C 864.261719 -75.464844 835.65625 -46.863281 835.65625 -11.59375 C 835.65625 23.671875 864.261719 52.273438 899.527344 52.273438 C 934.792969 52.273438 963.398438 23.671875 963.398438 -11.59375 C 963.398438 -46.863281 934.792969 -75.464844 899.527344 -75.464844 Z M 899.527344 -75.464844 " fill-opacity="1" fill-rule="nonzero"/></g><g fill="#ffeeb4" fill-opacity="1"><g transform="translate(397.753299, 166.030899)"><g><path d="M 96.097656 -68.921875 C 96.097656 -84.113281 84.113281 -94.492188 67.316406 -94.492188 C 41.871094 -94.492188 27.667969 -74.234375 27.667969 -47.925781 C 27.667969 -46.566406 28.78125 -45.332031 30.261719 -45.332031 C 31.742188 -45.332031 32.855469 -46.566406 32.855469 -47.925781 C 32.855469 -70.652344 44.835938 -89.179688 66.082031 -89.179688 C 80.53125 -89.179688 90.910156 -82.386719 90.910156 -68.921875 C 90.910156 -55.089844 81.519531 -40.265625 67.316406 -40.265625 C 64.105469 -40.265625 60.648438 -41.007812 57.1875 -42.242188 C 56.816406 -42.367188 56.570312 -42.367188 56.199219 -42.367188 C 54.964844 -42.367188 53.730469 -41.5 53.730469 -39.894531 C 53.730469 -38.785156 54.347656 -37.796875 55.460938 -37.425781 C 59.289062 -35.945312 63.117188 -35.078125 66.945312 -35.078125 C 84.363281 -35.078125 96.097656 -51.382812 96.097656 -68.921875 Z M 64.105469 -75.097656 C 65.585938 -77.691406 68.429688 -81.273438 71.640625 -81.644531 C 72.75 -81.890625 74.109375 -82.757812 73.863281 -84.734375 C 73.738281 -85.96875 72.382812 -86.832031 71.144531 -86.832031 C 67.316406 -86.832031 61.882812 -82.261719 59.535156 -77.445312 C 55.953125 -70.527344 52.863281 -60.027344 49.53125 -48.789062 C 41.625 -21.863281 34.460938 2.347656 17.910156 2.347656 C 10.992188 2.347656 5.1875 -2.101562 5.1875 -9.632812 C 5.1875 -16.796875 10.992188 -24.457031 17.785156 -24.457031 C 18.527344 -24.457031 19.269531 -24.457031 19.886719 -24.210938 C 21.492188 -23.714844 23.222656 -24.949219 23.222656 -26.679688 C 23.222656 -29.027344 20.628906 -29.644531 18.035156 -29.644531 C 8.277344 -29.644531 0 -20.257812 0 -9.386719 C 0 0.617188 7.65625 7.535156 17.785156 7.535156 C 39.527344 7.535156 47.554688 -23.46875 54.59375 -47.429688 C 57.683594 -58.300781 60.769531 -68.550781 64.105469 -75.097656 Z M 64.105469 -75.097656 "/></g></g></g><g fill="#ffeeb4" fill-opacity="1"><g transform="translate(488.036906, 166.030899)"><g><path d="M 20.132812 -64.722656 C 22.480469 -64.722656 24.332031 -66.574219 24.332031 -68.921875 C 24.332031 -71.269531 22.480469 -73.121094 20.132812 -73.121094 C 17.785156 -73.121094 15.808594 -71.269531 15.808594 -68.921875 C 15.808594 -66.574219 17.785156 -64.722656 20.132812 -64.722656 Z M 28.285156 -29.398438 C 27.914062 -29.519531 27.667969 -29.644531 27.296875 -29.644531 C 26.308594 -29.644531 25.320312 -29.027344 24.828125 -28.039062 C 20.257812 -17.910156 14.574219 -5.1875 6.917969 -5.1875 C 4.324219 -5.1875 3.210938 -6.792969 3.210938 -10.375 C 3.210938 -15.6875 5.433594 -21.367188 17.414062 -55.089844 C 18.15625 -57.1875 16.550781 -58.421875 14.945312 -58.421875 C 13.957031 -58.421875 12.96875 -57.804688 12.597656 -56.695312 C 7.164062 -42.613281 -1.605469 -20.007812 -1.976562 -10.375 C -2.222656 -4.695312 0.988281 0 6.917969 0 C 17.292969 0 23.714844 -12.597656 29.644531 -25.9375 C 29.765625 -26.308594 29.890625 -26.679688 29.890625 -27.050781 C 29.890625 -28.039062 29.273438 -29.027344 28.285156 -29.398438 Z M 28.285156 -29.398438 "/></g></g></g><g fill="#ffeeb4" fill-opacity="1"><g transform="translate(510.762196, 166.030899)"><g><path d="M 54.964844 -29.519531 C 54.59375 -29.644531 54.222656 -29.765625 53.851562 -29.765625 C 52.863281 -29.765625 52 -29.148438 51.507812 -28.160156 C 45.949219 -15.070312 38.90625 -7.535156 31.742188 -2.964844 C 32.980469 -9.015625 33.101562 -15.070312 30.386719 -19.515625 C 37.179688 -25.320312 40.019531 -34.585938 40.019531 -42.488281 C 40.019531 -52 35.324219 -58.421875 26.433594 -58.421875 C 14.574219 -58.421875 7.289062 -40.636719 0.246094 -23.839844 C 0.125 -23.46875 0 -23.097656 0 -22.726562 C 0 -21.246094 1.359375 -20.132812 2.71875 -20.132812 C 3.707031 -20.132812 4.445312 -20.75 4.941406 -21.738281 L 5.433594 -22.851562 C 11.238281 -35.945312 17.910156 -53.234375 26.433594 -53.234375 C 32.238281 -53.234375 34.832031 -48.914062 34.832031 -42.488281 C 34.832031 -35.574219 32.730469 -27.792969 26.925781 -23.589844 C 20.257812 -28.902344 10.621094 -28.410156 10.621094 -20.628906 C 10.621094 -13.957031 18.402344 -13.339844 25.9375 -16.796875 C 28.285156 -12.597656 27.296875 -6.421875 25.445312 0.246094 C 19.390625 2.839844 13.585938 3.707031 8.398438 4.570312 C -5.0625 6.917969 -10.746094 11.859375 -10.746094 20.257812 C -10.746094 28.039062 -5.558594 32.113281 2.222656 32.113281 C 13.957031 32.113281 22.972656 22.234375 29.519531 4.199219 C 39.15625 -0.246094 48.914062 -8.769531 56.324219 -26.1875 C 56.445312 -26.554688 56.570312 -26.804688 56.570312 -27.171875 C 56.570312 -28.160156 55.953125 -29.148438 54.964844 -29.519531 Z M 22.480469 -20.628906 C 19.761719 -19.515625 15.933594 -19.144531 15.933594 -20.628906 C 15.933594 -22.851562 18.773438 -22.972656 22.480469 -20.628906 Z M 22.851562 6.792969 C 16.796875 19.886719 10.128906 27.050781 2.101562 27.050781 C -2.46875 27.050781 -5.558594 23.589844 -5.558594 20.132812 C -5.558594 14.699219 -1.234375 11.363281 9.265625 9.757812 C 13.464844 9.015625 18.035156 8.277344 22.851562 6.792969 Z M 22.851562 6.792969 "/></g></g></g><g fill="#ffeeb4" fill-opacity="1"><g transform="translate(560.041485, 166.030899)"><g><path d="M 54.964844 -29.519531 C 54.59375 -29.644531 54.222656 -29.765625 53.851562 -29.765625 C 52.863281 -29.765625 52 -29.148438 51.507812 -28.160156 C 45.949219 -15.070312 38.90625 -7.535156 31.742188 -2.964844 C 32.980469 -9.015625 33.101562 -15.070312 30.386719 -19.515625 C 37.179688 -25.320312 40.019531 -34.585938 40.019531 -42.488281 C 40.019531 -52 35.324219 -58.421875 26.433594 -58.421875 C 14.574219 -58.421875 7.289062 -40.636719 0.246094 -23.839844 C 0.125 -23.46875 0 -23.097656 0 -22.726562 C 0 -21.246094 1.359375 -20.132812 2.71875 -20.132812 C 3.707031 -20.132812 4.445312 -20.75 4.941406 -21.738281 L 5.433594 -22.851562 C 11.238281 -35.945312 17.910156 -53.234375 26.433594 -53.234375 C 32.238281 -53.234375 34.832031 -48.914062 34.832031 -42.488281 C 34.832031 -35.574219 32.730469 -27.792969 26.925781 -23.589844 C 20.257812 -28.902344 10.621094 -28.410156 10.621094 -20.628906 C 10.621094 -13.957031 18.402344 -13.339844 25.9375 -16.796875 C 28.285156 -12.597656 27.296875 -6.421875 25.445312 0.246094 C 19.390625 2.839844 13.585938 3.707031 8.398438 4.570312 C -5.0625 6.917969 -10.746094 11.859375 -10.746094 20.257812 C -10.746094 28.039062 -5.558594 32.113281 2.222656 32.113281 C 13.957031 32.113281 22.972656 22.234375 29.519531 4.199219 C 39.15625 -0.246094 48.914062 -8.769531 56.324219 -26.1875 C 56.445312 -26.554688 56.570312 -26.804688 56.570312 -27.171875 C 56.570312 -28.160156 55.953125 -29.148438 54.964844 -29.519531 Z M 22.480469 -20.628906 C 19.761719 -19.515625 15.933594 -19.144531 15.933594 -20.628906 C 15.933594 -22.851562 18.773438 -22.972656 22.480469 -20.628906 Z M 22.851562 6.792969 C 16.796875 19.886719 10.128906 27.050781 2.101562 27.050781 C -2.46875 27.050781 -5.558594 23.589844 -5.558594 20.132812 C -5.558594 14.699219 -1.234375 11.363281 9.265625 9.757812 C 13.464844 9.015625 18.035156 8.277344 22.851562 6.792969 Z M 22.851562 6.792969 "/></g></g></g><g fill="#ffeeb4" fill-opacity="1"><g transform="translate(609.320774, 166.030899)"><g><path d="M 55.335938 -29.398438 C 54.964844 -29.519531 54.59375 -29.644531 54.222656 -29.644531 C 53.234375 -29.644531 52.371094 -29.027344 51.878906 -28.039062 L 51.753906 -27.667969 C 47.675781 -18.527344 41.75 -5.1875 34.089844 -5.1875 C 31.496094 -5.1875 30.386719 -6.667969 30.386719 -10.375 C 30.386719 -15.808594 34.460938 -26.554688 38.90625 -39.03125 L 45.082031 -55.582031 C 45.703125 -57.066406 44.714844 -59.042969 42.738281 -59.042969 C 41.625 -59.042969 40.636719 -58.421875 40.265625 -57.433594 C 39.648438 -55.828125 38.90625 -53.976562 38.167969 -51.878906 C 35.945312 -56.324219 32.113281 -58.421875 26.925781 -58.421875 C 12.105469 -58.421875 -0.371094 -29.519531 -0.371094 -13.339844 C -0.371094 -5.929688 2.839844 0 9.757812 0 C 15.070312 0 20.257812 -3.457031 25.199219 -10.375 C 25.199219 -4.324219 28.160156 0 34.089844 0 C 45.207031 0 51.878906 -15.191406 56.570312 -25.566406 L 56.695312 -25.9375 C 56.816406 -26.308594 56.941406 -26.679688 56.941406 -27.050781 C 56.941406 -28.039062 56.324219 -28.902344 55.335938 -29.398438 Z M 9.632812 -5.1875 C 5.929688 -5.1875 4.816406 -8.769531 4.816406 -14.203125 C 5.0625 -26.433594 15.5625 -52.988281 26.925781 -53.234375 C 31.375 -53.234375 34.585938 -49.902344 34.832031 -44.21875 L 31.867188 -36.3125 C 26.925781 -23.714844 19.640625 -5.1875 9.632812 -5.1875 Z M 9.632812 -5.1875 "/></g></g></g><g fill="#ffeeb4" fill-opacity="1"><g transform="translate(707.647983, 165.971314)"><g><path d="M 93.816406 -65.757812 C 94.433594 -80.714844 82.320312 -91.34375 64.769531 -91.34375 C 40.046875 -91.34375 25.339844 -71.320312 25.339844 -44.867188 C 25.339844 -43.386719 26.574219 -42.273438 27.933594 -42.273438 C 29.417969 -42.273438 30.53125 -43.386719 30.53125 -44.867188 C 30.53125 -68.105469 42.519531 -85.660156 64.769531 -86.027344 C 78.613281 -86.277344 88.996094 -78.859375 88.625 -65.757812 C 88.007812 -51.417969 73.792969 -42.148438 56.980469 -41.53125 C 55.003906 -41.53125 54.015625 -40.296875 54.015625 -38.9375 C 54.015625 -37.699219 55.003906 -36.339844 56.980469 -36.339844 C 69.589844 -36.214844 72.433594 -26.574219 72.433594 -16.070312 C 72.433594 -7.417969 70.332031 4.078125 70.332031 9.765625 C 70.332031 19.53125 74.78125 25.957031 83.929688 25.957031 C 85.535156 25.957031 86.769531 24.722656 86.769531 23.113281 C 86.769531 21.507812 85.535156 20.640625 83.929688 20.640625 C 78.367188 20.640625 75.769531 17.429688 75.523438 9.765625 C 75.523438 6.675781 77.625 -8.28125 77.625 -16.191406 C 77.625 -25.339844 75.769531 -33.621094 69.34375 -38.195312 C 83.308594 -42.027344 93.320312 -52.410156 93.816406 -65.757812 Z M 65.511719 -76.511719 C 66.746094 -77.625 68.105469 -78.367188 69.34375 -78.613281 C 70.453125 -78.859375 71.566406 -79.601562 71.566406 -81.578125 C 71.566406 -82.9375 70.207031 -83.804688 68.722656 -83.804688 C 66.992188 -83.804688 64.273438 -82.566406 62.050781 -80.589844 C 55.375 -74.410156 52.039062 -62.296875 48.082031 -48.949219 C 42.273438 -30.035156 35.226562 -4.945312 17.921875 -4.945312 C 11.125 -4.945312 5.191406 -9.148438 5.191406 -16.5625 C 5.191406 -23.980469 11.125 -31.644531 17.921875 -31.644531 C 18.664062 -31.644531 19.40625 -31.519531 20.023438 -31.394531 C 21.878906 -30.902344 23.238281 -32.261719 23.238281 -33.992188 C 23.238281 -36.214844 21.136719 -36.957031 17.800781 -36.957031 C 8.40625 -36.957031 0 -27.316406 0 -16.5625 C 0 -6.425781 7.910156 0.246094 18.046875 0.246094 C 38.566406 0.246094 46.226562 -25.214844 53.027344 -47.464844 C 56.488281 -58.710938 60.195312 -72.183594 65.511719 -76.511719 Z M 65.511719 -76.511719 "/></g></g></g><g fill="#ffeeb4" fill-opacity="1"><g transform="translate(798.496681, 165.971314)"><g><path d="M 44.746094 -29.417969 C 43.386719 -29.914062 41.902344 -29.292969 41.285156 -28.058594 C 34.363281 -12.113281 26.453125 -4.945312 16.316406 -5.191406 C 8.898438 -5.4375 4.945312 -9.765625 5.191406 -16.808594 C 5.316406 -19.40625 5.6875 -21.753906 6.550781 -24.96875 C 20.269531 -28.304688 38.6875 -36.214844 38.6875 -49.320312 C 38.6875 -55.25 34.363281 -58.464844 28.183594 -58.464844 C 13.597656 -58.464844 0.742188 -32.753906 0 -16.933594 C -0.246094 -6.796875 5.933594 0 16.191406 0 C 28.675781 0 38.070312 -8.15625 46.105469 -25.957031 C 46.226562 -26.328125 46.351562 -26.574219 46.351562 -26.945312 C 46.351562 -27.933594 45.734375 -28.921875 44.746094 -29.417969 Z M 8.527344 -30.902344 C 12.484375 -40.417969 19.652344 -53.273438 28.183594 -53.273438 C 30.902344 -53.273438 33.496094 -52.65625 33.496094 -49.320312 C 33.496094 -40.171875 18.789062 -34.113281 8.527344 -30.902344 Z M 8.527344 -30.902344 "/></g></g></g><g fill="#ffeeb4" fill-opacity="1"><g transform="translate(838.915097, 165.971314)"><g><path d="M 48.207031 -29.417969 C 47.835938 -29.542969 47.464844 -29.664062 47.09375 -29.664062 C 46.105469 -29.664062 44.992188 -29.171875 44.746094 -28.058594 C 42.765625 -21.011719 37.082031 -13.101562 30.53125 -13.101562 C 28.183594 -13.101562 26.203125 -13.96875 24.597656 -15.699219 C 26.945312 -19.53125 40.667969 -46.351562 44.867188 -55.003906 C 44.992188 -55.375 45.117188 -55.746094 45.117188 -56.117188 C 45.117188 -57.105469 44.496094 -58.09375 43.632812 -58.589844 C 43.261719 -58.710938 42.890625 -58.835938 42.519531 -58.835938 C 41.53125 -58.835938 40.542969 -58.21875 40.046875 -57.351562 C 38.195312 -53.273438 24.226562 -25.585938 22.867188 -23.363281 C 22.992188 -24.226562 23.238281 -25.339844 23.484375 -26.328125 C 23.855469 -28.058594 22.621094 -29.664062 20.890625 -29.664062 C 19.777344 -29.664062 18.789062 -28.921875 18.417969 -27.6875 C 17.429688 -24.226562 17.179688 -19.652344 18.539062 -15.945312 C 15.699219 -11 11.125 -5.191406 6.796875 -5.191406 C 4.078125 -5.191406 3.089844 -6.796875 3.089844 -10.382812 C 3.089844 -15.078125 6.796875 -25.585938 17.550781 -55.25 C 18.171875 -56.859375 17.058594 -58.710938 15.078125 -58.710938 C 13.96875 -58.710938 12.980469 -58.09375 12.609375 -57.105469 C 3.957031 -32.507812 -2.101562 -18.292969 -2.101562 -10.382812 C -2.101562 -4.328125 0.617188 0 6.796875 0 C 12.113281 0 15.699219 -3.089844 21.753906 -11.25 C 23.980469 -9.023438 27.070312 -7.910156 30.40625 -7.910156 C 39.058594 -7.910156 46.847656 -16.808594 49.566406 -26.082031 C 49.6875 -26.453125 49.8125 -26.699219 49.8125 -27.070312 C 49.8125 -28.058594 49.195312 -29.046875 48.207031 -29.417969 Z M 48.207031 -29.417969 "/></g></g></g><g fill="#ffeeb4" fill-opacity="1"><g transform="translate(882.794417, 165.971314)"><g><path d="M 20.148438 -64.769531 C 22.496094 -64.769531 24.351562 -66.625 24.351562 -68.972656 C 24.351562 -71.320312 22.496094 -73.175781 20.148438 -73.175781 C 17.800781 -73.175781 15.820312 -71.320312 15.820312 -68.972656 C 15.820312 -66.625 17.800781 -64.769531 20.148438 -64.769531 Z M 28.304688 -29.417969 C 27.933594 -29.542969 27.6875 -29.664062 27.316406 -29.664062 C 26.328125 -29.664062 25.339844 -29.046875 24.84375 -28.058594 C 20.269531 -17.921875 14.585938 -5.191406 6.921875 -5.191406 C 4.328125 -5.191406 3.214844 -6.796875 3.214844 -10.382812 C 3.214844 -15.699219 5.4375 -21.382812 17.429688 -55.128906 C 18.171875 -57.230469 16.5625 -58.464844 14.957031 -58.464844 C 13.96875 -58.464844 12.980469 -57.847656 12.609375 -56.734375 C 7.167969 -42.644531 -1.605469 -20.023438 -1.976562 -10.382812 C -2.226562 -4.695312 0.988281 0 6.921875 0 C 17.304688 0 23.730469 -12.609375 29.664062 -25.957031 C 29.789062 -26.328125 29.914062 -26.699219 29.914062 -27.070312 C 29.914062 -28.058594 29.292969 -29.046875 28.304688 -29.417969 Z M 28.304688 -29.417969 "/></g></g></g><g fill="#ffeeb4" fill-opacity="1"><g transform="translate(906.773566, 165.971314)"><g><path d="M 44.746094 -29.417969 C 43.386719 -29.914062 41.902344 -29.292969 41.285156 -28.058594 C 34.363281 -12.113281 26.453125 -4.945312 16.316406 -5.191406 C 8.898438 -5.4375 4.945312 -9.765625 5.191406 -16.808594 C 5.316406 -19.40625 5.6875 -21.753906 6.550781 -24.96875 C 20.269531 -28.304688 38.6875 -36.214844 38.6875 -49.320312 C 38.6875 -55.25 34.363281 -58.464844 28.183594 -58.464844 C 13.597656 -58.464844 0.742188 -32.753906 0 -16.933594 C -0.246094 -6.796875 5.933594 0 16.191406 0 C 28.675781 0 38.070312 -8.15625 46.105469 -25.957031 C 46.226562 -26.328125 46.351562 -26.574219 46.351562 -26.945312 C 46.351562 -27.933594 45.734375 -28.921875 44.746094 -29.417969 Z M 8.527344 -30.902344 C 12.484375 -40.417969 19.652344 -53.273438 28.183594 -53.273438 C 30.902344 -53.273438 33.496094 -52.65625 33.496094 -49.320312 C 33.496094 -40.171875 18.789062 -34.113281 8.527344 -30.902344 Z M 8.527344 -30.902344 "/></g></g></g><g fill="#ffeeb4" fill-opacity="1"><g transform="translate(947.191988, 165.971314)"><g><path d="M 72.183594 -27.070312 C 72.183594 -28.554688 70.824219 -29.664062 69.464844 -29.664062 C 68.476562 -29.664062 67.613281 -29.046875 67.117188 -28.058594 C 63.164062 -18.910156 59.207031 -13.101562 52.78125 -13.101562 C 50.554688 -13.101562 48.207031 -14.089844 46.96875 -15.699219 C 51.296875 -23.238281 61.679688 -43.878906 67.117188 -55.003906 C 67.242188 -55.375 67.363281 -55.746094 67.363281 -56.242188 C 67.363281 -57.601562 66.253906 -58.835938 64.894531 -58.835938 C 63.902344 -58.835938 62.914062 -58.21875 62.421875 -57.351562 C 58.589844 -49.320312 48.949219 -30.40625 45.238281 -23.363281 C 45.363281 -24.226562 45.488281 -25.339844 45.859375 -26.328125 C 46.351562 -28.058594 44.992188 -29.664062 43.261719 -29.664062 C 42.027344 -29.664062 41.160156 -28.921875 40.789062 -27.6875 C 39.800781 -24.226562 39.554688 -19.652344 40.914062 -15.945312 C 35.351562 -8.035156 33.125 -5.191406 29.171875 -5.191406 C 26.824219 -5.191406 25.460938 -6.425781 25.460938 -10.382812 C 25.460938 -16.5625 32.136719 -34.609375 39.925781 -55.25 C 40.542969 -56.859375 39.304688 -58.710938 37.328125 -58.710938 C 36.339844 -58.710938 35.351562 -58.09375 34.980469 -57.105469 C 33.621094 -53.273438 26.699219 -33.746094 24.472656 -28.183594 C 17.800781 -11.496094 12.609375 -5.191406 6.675781 -5.191406 C 4.078125 -5.191406 2.964844 -6.675781 2.964844 -10.382812 C 2.964844 -15.203125 5.316406 -21.878906 17.429688 -55.25 C 18.046875 -56.859375 17.058594 -58.710938 14.957031 -58.710938 C 13.96875 -58.710938 12.980469 -58.09375 12.609375 -57.105469 C 1.976562 -28.921875 -2.226562 -16.5625 -2.226562 -10.382812 C -2.226562 -4.328125 0.742188 0 6.675781 0 C 12.238281 0 16.6875 -3.707031 20.269531 -8.777344 C 21.011719 -3.460938 23.484375 0 29.171875 0 C 34.980469 0 39.429688 -4.695312 44.128906 -11.25 C 46.105469 -9.269531 49.070312 -7.910156 52.78125 -7.910156 C 61.554688 -7.910156 68.476562 -16.5625 71.9375 -26.082031 C 72.0625 -26.453125 72.183594 -26.699219 72.183594 -27.070312 Z M 72.183594 -27.070312 "/></g></g></g></svg>